<svg width="128" height="128" viewBox="0 0 128 128" fill="none" xmlns="http://www.w3.org/2000/svg">
  <defs>
    <linearGradient id="bg" x1="20" y1="16" x2="108" y2="112" gradientUnits="userSpaceOnUse">
      <stop stop-color="#14213D"/>
      <stop offset="1" stop-color="#111827"/>
    </linearGradient>
    <linearGradient id="bubble" x1="32" y1="28" x2="88" y2="84" gradientUnits="userSpaceOnUse">
      <stop stop-color="#38BDF8"/>
      <stop offset="1" stop-color="#0EA5E9"/>
    </linearGradient>
    <linearGradient id="bars" x1="63" y1="46" x2="93" y2="76" gradientUnits="userSpaceOnUse">
      <stop stop-color="#FBBF24"/>
      <stop offset="1" stop-color="#F59E0B"/>
    </linearGradient>
    <filter id="shadow" x="16" y="12" width="96" height="104" filterUnits="userSpaceOnUse" color-interpolation-filters="sRGB">
      <feDropShadow dx="0" dy="6" stdDeviation="6" flood-color="#020617" flood-opacity="0.25"/>
    </filter>
  </defs>

  <g filter="url(#shadow)">
    <rect x="16" y="16" width="96" height="96" rx="28" fill="url(#bg)"/>
  </g>

  <path d="M35 41C35 34.3726 40.3726 29 47 29H71C77.6274 29 83 34.3726 83 41V56C83 62.6274 77.6274 68 71 68H58.5L48.5 78.5C47.2406 79.8222 45 78.9306 45 77.1044V68H47C40.3726 68 35 62.6274 35 56V41Z" fill="url(#bubble)"/>

  <rect x="60" y="59" width="8" height="17" rx="3" fill="url(#bars)"/>
  <rect x="72" y="51" width="8" height="25" rx="3" fill="url(#bars)"/>
  <rect x="84" y="43" width="8" height="33" rx="3" fill="url(#bars)"/>

  <circle cx="49" cy="48.5" r="4.5" fill="#E0F2FE"/>
  <circle cx="59" cy="48.5" r="4.5" fill="#E0F2FE"/>
  <circle cx="69" cy="48.5" r="4.5" fill="#E0F2FE"/>
</svg>
